$MeshFormat
4.1 0 8
$EndMeshFormat
$Entities
4 4 1 0
1 0 0 0 0 
2 2 0 0 0 
3 2 1 0 0 
4 0 1 0 0 
1 0 0 0 2 0 0 0 2 1 -2 
2 2 0 0 2 1 0 0 2 2 -3 
3 0 1 0 2 1 0 0 2 3 -4 
4 0 0 0 0 1 0 0 2 4 -1 
1 0 0 0 2 1 0 0 4 1 2 3 4 
$EndEntities
$Nodes
9 268 1 268
0 1 0 1
1
0 0 0
0 2 0 1
2
2 0 0
0 3 0 1
3
2 1 0
0 4 0 1
4
0 1 0
1 1 0 19
5
6
7
8
9
10
11
12
13
14
15
16
17
18
19
20
21
22
23
0.0999999999997993 0 0
0.1999999999996293 0 0
0.2999999999994072 0 0
0.3999999999991157 0 0
0.4999999999988242 0 0
0.5999999999985328 0 0
0.6999999999982413 0 0
0.7999999999979498 0 0
0.8999999999976585 0 0
0.9999999999973885 0 0
1.09999999999763 0 0
1.199999999997894 0 0
1.299999999998157 0 0
1.39999999999842 0 0
1.499999999998683 0 0
1.599999999998947 0 0
1.69999999999921 0 0
1.799999999999474 0 0
1.899999999999737 0 0
1 2 0 9
24
25
26
27
28
29
30
31
32
2 0.09999999999981467 0
2 0.1999999999995579 0
2 0.2999999999992664 0
2 0.3999999999989749 0
2 0.4999999999986943 0
2 0.5999999999989468 0
2 0.69999999999921 0
2 0.7999999999994734 0
2 0.8999999999997368 0
1 3 0 19
33
34
35
36
37
38
39
40
41
42
43
44
45
46
47
48
49
50
51
1.899999999999584 1 0
1.799999999999167 1 0
1.699999999999306 1 0
1.6 1 0
1.500000000000693 1 0
1.400000000001387 1 0
1.30000000000208 1 0
1.200000000002774 1 0
1.100000000003467 1 0
1.000000000004117 1 0
0.9000000000037447 1 0
0.8000000000033287 1 0
0.7000000000029127 1 0
0.6000000000024965 1 0
0.5000000000020806 1 0
0.4000000000016644 1 0
0.3000000000012482 1 0
0.200000000000832 1 0
0.100000000000416 1 0
1 4 0 9
52
53
54
55
56
57
58
59
60
0 0.8999999999995836 0
0 0.7999999999999998 0
0 0.7000000000006934 0
0 0.6000000000013869 0
0 0.5000000000020587 0
0 0.4000000000016644 0
0 0.3000000000012483 0
0 0.2000000000008322 0
0 0.100000000000416 0
2 1 0 208
61
62
63
64
65
66
67
68
69
70
71
72
73
74
75
76
77
78
79
80
81
82
83
84
85
86
87
88
89
90
91
92
93
94
95
96
97
98
99
100
101
102
103
104
105
106
107
108
109
110
111
112
113
114
115
116
117
118
119
120
121
122
123
124
125
126
127
128
129
130
131
132
133
134
135
136
137
138
139
140
141
142
143
144
145
146
147
148
149
150
151
152
153
154
155
156
157
158
159
160
161
162
163
164
165
166
167
168
169
170
171
172
173
174
175
176
177
178
179
180
181
182
183
184
185
186
187
188
189
190
191
192
193
194
195
196
197
198
199
200
201
202
203
204
205
206
207
208
209
210
211
212
213
214
215
216
217
218
219
220
221
222
223
224
225
226
227
228
229
230
231
232
233
234
235
236
237
238
239
240
241
242
243
244
245
246
247
248
249
250
251
252
253
254
255
256
257
258
259
260
261
262
263
264
265
266
267
268
1.44335588546952 0.8996809101413101 0
1.167654232697716 0.918864010282415 0
0.5759873455520469 0.07826871299058774 0
0.8374961439786279 0.07771917901028215 0
1.311049883817475 0.08659639509261903 0
0.6565726295372579 0.9133987004287724 0
0.08799621579684946 0.5838130674248886 0
1.910852902457774 0.4723367369814093 0
0.3563050105251557 0.914145230297372 0
1.611737235953186 0.08737968433906669 0
0.0871362647079556 0.391873095778909 0
1.880849930805872 0.6632574300677797 0
0.8554437214437697 0.9142816645638627 0
1.11212151400514 0.08480841487230072 0
0.3800349816777033 0.08789386646338956 0
1.615646260708572 0.9215515852890783 0
0.1003807920240246 0.7702294648780766 0
1.910149560012416 0.2818527685899843 0
1.810518431331513 0.9145915015630306 0
0.0903330436320542 0.1950707864252462 0
0.1526116100055726 0.9178851427615271 0
1.808946764211553 0.08954832336023869 0
0.9576567275968653 0.9154710894326258 0
0.9244799888843152 0.8305745069278089 0
0.8211533351288063 0.828315258426994 0
0.9059702827939984 0.7428860713307857 0
0.7981905443423682 0.7393539632619968 0
0.7803904436793927 0.6460142443158496 0
0.9053577903623111 0.6316040025974643 0
0.6725173397604282 0.6494396036977319 0
0.7674943807008335 0.5386745488403325 0
0.655618270147344 0.5605294706255581 0
0.7153789317033616 0.4771232846728138 0
0.6483784054949391 0.4795356336563686 0
0.5572406337974148 0.5647163698406608 0
0.5565123830838492 0.4791764556575202 0
0.8240933164883781 0.4535130030880117 0
0.4596282166796836 0.5649670707695963 0
0.4600839779710291 0.4775393542345592 0
0.6641515691867483 0.4027687263919183 0
0.4751130183099898 0.3890498791059583 0
0.4705250100257746 0.6521807767937103 0
0.372448065208584 0.6522368756275579 0
0.3734277833217996 0.3840704174233146 0
0.3938919519427251 0.2807524224714955 0
0.2766423303329245 0.2861500363019616 0
0.3640185768494984 0.4757725461408374 0
0.4897913396995449 0.7393708323616098 0
0.3910015813960682 0.7394473345986945 0
0.5052582446501956 0.3029732165982575 0
1.036255807775879 0.8322252222496741 0
0.2773859390234713 0.6547786618682734 0
0.6933647829743708 0.7389710051415168 0
0.4679961205614378 0.2188856993754994 0
0.294211997914721 0.7423031823034002 0
0.1848252809596564 0.6632353082588754 0
0.5375720135325425 0.2258316079370223 0
0.4196908363859814 0.8266252848555677 0
0.5200678893337064 0.8264430746748495 0
0.457597475282114 0.9133733549451131 0
0.3214281268848392 0.8288195054986091 0
0.222660148310726 0.8358452410194942 0
0.7571066788922334 0.9137054556072105 0
1.010150826170467 0.08486444617662263 0
1.117817899271379 0.1691916304248313 0
1.2161038162821 0.1716317548239672 0
1.112750510287323 0.2533072841331235 0
1.210626171518852 0.2582409182150929 0
1.198205243114678 0.3477968602971972 0
1.300968224811344 0.3525452326910587 0
1.290593901293298 0.4366299805646803 0
1.360754386123058 0.4370710376748944 0
1.298268044174968 0.5165061302016362 0
1.38413957256785 0.4926498343295292 0
1.463296277052042 0.4619488909043149 0
1.485447353330233 0.5183315619748456 0
1.548130253893338 0.4436170383347622 0
1.550418739405469 0.522967128898294 0
1.190523135388445 0.4409656561145073 0
1.017787101257725 0.2474708236172495 0
1.30861686282835 0.594795349318031 0
1.238491138904022 0.6019162435561557 0
1.530103882066771 0.6017032908780283 0
1.533003007004667 0.3573638170796204 0
1.633326831934351 0.3522377822650287 0
1.293008471383182 0.6739380511170381 0
1.623560459430388 0.6094837639559028 0
1.206160025954274 0.6553780370962659 0
1.606045684097805 0.6858695247235138 0
1.681901753380113 0.6790177380125743 0
1.637053658079737 0.5268736998614242 0
1.524083123779788 0.2660726995361938 0
1.625885542294248 0.2638926862091439 0
1.498984619295682 0.6844332078012867 0
1.131752528278534 0.6241414080928289 0
1.729108594140162 0.3533188261496589 0
1.312576436973001 0.2637636080453762 0
1.264830113617668 0.755522197744894 0
1.363489815409291 0.7634171569953765 0
1.092730470062952 0.6763129109014516 0
1.056934143248589 0.588706489935399 0
1.723650656700692 0.2649474764030787 0
1.821220189582636 0.3614265551019069 0
1.349424297753616 0.8406877950668297 0
1.00813732182809 0.6783499515339402 0
1.619582269444321 0.1755257757711805 0
1.518928010799493 0.1757424184323987 0
1.473494278689175 0.7832696937032585 0
1.510992121238317 0.08746689710944472 0
1.71801394225488 0.176533477219357 0
1.814196710661243 0.1802234063259037 0
1.210284626817685 0.08573868413947931 0
0.08866983844645764 0.2942773659676249 0
0.1827427513994458 0.1917092599085957 0
0.1894872354224018 0.09470362723263674 0
0.1800939308017738 0.2899151539872487 0
0.177258240741108 0.3864224299736594 0
0.08699273405230681 0.4888177305043763 0
0.1758732599315754 0.4808269524343287 0
0.2578960979152229 0.9176469297018441 0
1.394712939169017 0.6787354286876094 0
0.2700575250419742 0.566927845853037 0
1.711405709066291 0.9177019614183044 0
1.822276468300168 0.8302503888542285 0
1.912944881666024 0.8219113206818573 0
1.851413342301943 0.7472598727366668 0
1.720650649481343 0.8333124487787151 0
0.6030262948891004 0.3119354167819282 0
0.6352658952110204 0.23056104774762 0
0.6974380131336952 0.3242757236889197 0
0.7373313047248412 0.2414911500801118 0
0.7858423391882307 0.3463878092192699 0
0.8319380790735404 0.2675465374951738 0
0.9142657254537608 0.3003263996266971 0
0.6573959135721895 0.1514966275420842 0
0.9475371336444776 0.2461303077789308 0
1.903548693163047 0.5707882604949642 0
1.813194906998187 0.5489032258929603 0
0.3656758499663544 0.5649416858220921 0
1.064613568673423 0.9168652786459317 0
1.149372626183385 0.8340185587049015 0
1.709915144825806 0.08834231548160715 0
0.8701200976903353 0.3767319433905018 0
0.9574932394498737 0.4107871251855862 0
1.731160587794601 0.4445331119503479 0
0.9090410886304174 0.08286093725205831 0
0.5744647401553663 0.395556539797331 0
1.094660454216621 0.3425927420988555 0
1.066170143090082 0.4549788586356073 0
1.421621944401981 0.5760771756692231 0
0.3748182476216961 0.1765856563838493 0
1.638102732593433 0.441387957812791 0
0.8600453141416031 0.5530669132254453 0
1.190244823665308 0.5436778583866044 0
0.4788787477462309 0.08231842652996627 0
1.54713839469956 0.9237614412902803 0
1.314876020933209 0.174117872464374 0
1.910926041128151 0.3780201478265742 0
1.414389942485497 0.3762576956328521 0
0.5718411111248337 0.6515444707423517 0
0.09267353306036344 0.6790158004589367 0
0.7215165021010377 0.8269058406947294 0
0.9039184445020052 0.4935857243937277 0
0.7462003550948709 0.4227924483815571 0
1.102798554069281 0.5311446986394809 0
1.417684684622481 0.2679932041353227 0
0.5926954094078837 0.7391583016639036 0
1.416216445683022 0.1758719159141164 0
0.6218089613620207 0.8264848566154637 0
1.409879998706253 0.08737483492381308 0
0.5584063236796771 0.9132792221597684 0
0.123706781233323 0.854206578015838 0
1.907799894236381 0.1884311055972422 0
0.2737879225000138 0.3830351494666722 0
1.705675274122044 0.6195800485252398 0
0.280039139947546 0.1872140932533472 0
0.674287898909124 0.07514144298917778 0
1.364705384644924 0.9173806543310721 0
1.61496786744743 0.8436615341695857 0
1.729629282321925 0.7322432030186659 0
1.25722075490362 0.8373585304989146 0
1.14481023743197 0.7335236394427787 0
1.020158666597583 0.7463924240706076 0
0.9818846098472869 0.542829156764065 0
0.9977202195100088 0.3273445511962262 0
1.015971597023203 0.1691480956566349 0
0.775025398580682 0.1404255303222064 0
1.914899657584308 0.7592069269443218 0
0.2868261415501566 0.09214007531024682 0
1.522876757078215 0.868429955016782 0
0.8993713460226389 0.1837189984220941 0
0.4685340032693143 0.1613815213619241 0
0.7441667359504187 0.07341817131531367 0
1.272120571934304 0.9189164345913136 0
1.418317137457345 0.8438187541537584 0
1.605591688935853 0.763001673177926 0
0.5602724055902495 0.1534083398783544 0
0.200277084281878 0.7524909241432871 0
1.81745675591153 0.2718882789367761 0
0.1790362454015152 0.573529730003249 0
1.820117857168692 0.4559833371483158 0
1.786903379434438 0.6389085833748082 0
0.09178587305971347 0.9430594796977078 0
1.906025836562448 0.9087906841751792 0
0.09481240044841435 0.0972892289972217 0
1.904387045794162 0.09432476349295882 0
0.2703972501908695 0.4767455630230774 0
1.722499259243316 0.535276979197462 0
$EndNodes
$Elements
9 301 1 301
0 1 15 1
1 1 
0 2 15 1
2 2 
0 3 15 1
3 3 
0 4 15 1
4 4 
1 1 1 20
5 1 5 
6 5 6 
7 6 7 
8 7 8 
9 8 9 
10 9 10 
11 10 11 
12 11 12 
13 12 13 
14 13 14 
15 14 15 
16 15 16 
17 16 17 
18 17 18 
19 18 19 
20 19 20 
21 20 21 
22 21 22 
23 22 23 
24 23 2 
1 2 1 10
25 2 24 
26 24 25 
27 25 26 
28 26 27 
29 27 28 
30 28 29 
31 29 30 
32 30 31 
33 31 32 
34 32 3 
1 3 1 20
35 3 33 
36 33 34 
37 34 35 
38 35 36 
39 36 37 
40 37 38 
41 38 39 
42 39 40 
43 40 41 
44 41 42 
45 42 43 
46 43 44 
47 44 45 
48 45 46 
49 46 47 
50 47 48 
51 48 49 
52 49 50 
53 50 51 
54 51 4 
1 4 1 10
55 4 52 
56 52 53 
57 53 54 
58 54 55 
59 55 56 
60 56 57 
61 57 58 
62 58 59 
63 59 60 
64 60 1 
2 1 3 237
65 232 77 258 122 
66 233 78 259 171 
67 89 244 161 165 
68 223 204 209 244 
69 194 196 140 245 
70 106 234 177 176 
71 6 175 265 5 
72 31 32 264 185 
73 116 258 77 221 
74 163 259 78 218 
75 211 236 249 75 
76 232 122 180 81 
77 120 69 121 118 
78 69 120 47 48 
79 122 121 69 180 
80 82 171 170 202 
81 70 169 19 20 
82 46 47 120 231 
83 166 70 202 170 
84 115 109 118 121 
85 18 19 169 230 
86 123 66 229 222 
87 66 123 44 45 
88 162 153 166 170 
89 65 172 16 17 
90 29 197 68 28 
91 56 57 71 178 
92 42 43 73 83 
93 146 141 210 181 
94 41 42 83 200 
95 123 73 43 44 
96 35 183 79 34 
97 14 15 74 124 
98 179 178 71 177 
99 173 71 57 58 
100 176 173 80 174 
101 173 176 177 71 
102 267 107 199 182 
103 204 223 97 203 
104 190 100 207 188 
105 172 74 15 16 
106 262 198 197 72 
107 143 154 181 210 
108 197 29 30 72 
109 13 14 124 206 
110 268 151 212 205 
111 80 173 58 59 
112 149 256 168 154 
113 181 159 158 146 
114 180 69 48 49 
115 81 180 49 50 
116 210 141 133 134 
117 154 143 147 149 
118 98 199 107 99 
119 115 112 103 109 
120 209 208 129 139 
121 100 94 96 207 
122 101 110 188 207 
123 202 70 20 21 
124 82 202 21 22 
125 131 132 134 133 
126 141 146 148 142 
127 230 65 17 18 
128 103 112 182 199 
129 138 143 210 136 
130 117 110 105 114 
131 208 127 128 129 
132 231 66 45 46 
133 130 131 139 129 
134 141 142 214 133 
135 145 153 162 156 
136 189 188 110 117 
137 110 101 104 105 
138 224 93 94 100 
139 83 73 85 84 
140 159 181 154 168 
141 88 90 92 91 
142 62 200 111 201 
143 87 88 89 86 
144 84 111 200 83 
145 95 98 99 96 
146 205 212 145 156 
147 84 85 87 86 
148 128 127 125 126 
149 191 190 188 189 
150 224 97 91 93 
151 91 92 94 93 
152 139 131 133 214 
153 210 134 135 136 
154 199 98 102 103 
155 151 138 137 212 
156 129 128 157 130 
157 143 138 151 147 
158 187 184 79 183 
159 207 96 99 101 
160 135 137 138 136 
161 107 104 101 99 
162 193 192 190 191 
163 88 87 113 90 
164 245 204 203 194 
165 89 88 91 213 
166 212 137 144 145 
167 206 64 12 13 
168 96 94 92 95 
169 200 62 40 41 
170 203 192 193 194 
171 125 74 172 126 
172 126 217 157 128 
173 214 142 148 155 
174 214 155 161 225 
175 178 67 55 56 
176 65 217 126 172 
177 100 190 192 224 
178 10 63 215 9 
179 165 161 155 160 
180 153 145 144 152 
181 131 130 219 132 
182 28 68 218 27 
183 183 35 36 76 
184 9 215 75 8 
185 134 132 219 135 
186 167 166 153 152 
187 209 139 214 225 
188 70 166 167 169 
189 89 213 223 244 
190 137 135 219 144 
191 109 103 102 108 
192 97 224 192 203 
193 90 220 95 92 
194 91 97 223 213 
195 85 222 113 87 
196 27 218 78 26 
197 98 95 220 102 
198 90 113 227 220 
199 109 108 119 118 
200 130 157 226 219 
201 37 216 76 36 
202 54 55 67 221 
203 73 123 222 85 
204 219 226 152 144 
205 152 226 228 167 
206 53 54 221 77 
207 220 227 108 102 
208 217 65 230 228 
209 226 157 217 228 
210 227 113 222 229 
211 108 227 229 119 
212 228 230 169 167 
213 66 231 119 229 
214 118 119 231 120 
215 251 246 140 196 
216 52 53 77 232 
217 26 78 233 25 
218 106 176 174 236 
219 254 238 38 39 
220 250 239 76 216 
221 155 148 242 160 
222 165 243 86 89 
223 204 245 208 209 
224 127 140 246 125 
225 251 206 124 246 
226 251 193 191 247 
227 186 72 30 248 
228 8 75 249 7 
229 121 122 258 115 
230 170 171 259 162 
231 116 221 67 260 
232 163 218 68 261 
233 105 106 236 211 
234 60 1 5 265 
235 24 266 23 2 
236 174 80 265 175 
237 52 263 51 4 
238 33 264 32 3 
239 184 185 264 79 
240 105 104 234 106 
241 149 147 235 150 
242 267 182 260 179 
243 268 205 261 198 
244 201 241 254 62 
245 12 64 247 253 
246 11 237 63 10 
247 37 38 238 61 
248 183 76 239 187 
249 187 240 186 184 
250 159 164 241 158 
251 201 242 158 241 
252 146 158 242 148 
253 111 84 86 243 
254 161 244 209 225 
255 127 208 245 140 
256 74 125 246 124 
257 189 195 247 191 
258 112 116 260 182 
259 156 163 261 205 
260 235 262 240 150 
261 194 193 251 196 
262 242 243 165 160 
263 117 114 252 257 
264 105 211 252 114 
265 239 250 168 256 
266 175 6 7 249 
267 184 186 248 185 
268 185 248 30 31 
269 174 175 249 236 
270 37 61 250 216 
271 242 201 111 243 
272 247 64 206 251 
273 63 257 252 215 
274 211 75 215 252 
275 61 255 168 250 
276 237 11 12 253 
277 62 254 39 40 
278 164 159 168 255 
279 240 256 149 150 
280 195 189 117 257 
281 112 115 258 116 
282 156 162 259 163 
283 178 179 260 67 
284 197 198 261 68 
285 25 233 266 24 
286 50 51 263 81 
287 59 60 265 80 
288 22 23 266 82 
289 34 79 264 33 
290 104 107 267 234 
291 147 151 268 235 
292 52 232 81 263 
293 171 82 266 233 
294 195 257 63 237 
295 164 255 61 238 
296 240 187 239 256 
297 238 254 241 164 
298 237 253 247 195 
299 72 186 240 262 
300 179 177 234 267 
301 262 235 268 198 
$EndElements
